<svg width="212" height="40" viewBox="0 0 212 40" fill="none" xmlns="http://www.w3.org/2000/svg">
  <path d="M208.912 0.366089C209.844 0.366089 210.587 1.05311 210.587 1.90178C210.587 2.75045 209.83 3.43747 208.912 3.43747C207.995 3.43747 207.237 2.75045 207.237 1.90178C207.237 1.05311 207.98 0.366089 208.912 0.366089ZM208.912 3.20846C209.699 3.20846 210.354 2.61574 210.354 1.88831C210.354 1.16088 209.699 0.568153 208.912 0.568153C208.126 0.568153 207.47 1.16088 207.47 1.88831C207.47 2.61574 208.126 3.20846 208.912 3.20846ZM208.665 2.13079H208.548V2.83128H208.111V0.95881H209C209.378 0.95881 209.64 1.21476 209.64 1.55153C209.64 1.88831 209.378 2.10384 209.145 2.10384C209.364 2.34632 209.568 2.5888 209.786 2.83128H209.276L208.665 2.13079ZM208.548 1.28211V1.82095H208.97C209.116 1.82095 209.218 1.68624 209.218 1.55153C209.218 1.41682 209.102 1.28211 208.97 1.28211H208.548ZM204.207 0.675921H198.687V9.49941H190.822V0.675921H185.229V22.701H190.822V13.9583H198.687V22.701H204.207V13.9583H210.587V9.49941H204.207V0.675921ZM164.866 5.08093H170.692V22.701H176.212V5.08093H181.966V0.675921H164.851V5.08093H164.866ZM154.015 10.4558H149.397V5.08093H154.015C155.136 5.08093 156.432 6.17208 156.432 7.77512C156.432 9.37817 155.122 10.4693 154.015 10.4693V10.4558ZM156.564 14.4028C160.38 13.4464 161.967 10.3346 161.967 7.68082C161.967 3.72036 158.894 0.675921 154.306 0.675921H143.804V22.701H149.397V14.6992H150.446L157.35 22.701H163.672L156.564 14.4028ZM129.69 22.9973C137.439 22.9973 140.046 17.1374 140.046 11.6817C140.046 6.22596 137.439 0.366089 129.69 0.366089C121.941 0.366089 119.334 6.2529 119.334 11.6817C119.334 17.1105 121.941 22.9973 129.69 22.9973ZM129.69 18.6866C126.602 18.6866 125.058 16.3561 125.058 11.6817C125.058 7.00728 126.602 4.6768 129.69 4.6768C132.778 4.6768 134.322 7.00728 134.322 11.6817C134.322 16.3561 132.778 18.6866 129.69 18.6866ZM101.462 0.662449H96.0873V22.6875H101.681V9.74188L110.464 22.6875H115.926V0.662449H110.332V13.6081L101.462 0.662449ZM83.3716 10.4424H78.7543V5.06746H83.3716C84.4932 5.06746 85.7895 6.15861 85.7895 7.76165C85.7895 9.3647 84.4786 10.4558 83.3716 10.4558V10.4424ZM85.9206 14.3894C89.7368 13.4329 91.3244 10.3211 91.3244 7.66736C91.3244 3.70689 88.2511 0.662449 83.6629 0.662449H73.1612V22.6875H78.7543V14.6857H79.803L86.7071 22.6875H93.0286L85.9206 14.3894ZM51.6915 22.6875H69.1265V18.2151H57.2847V13.635H67.3058V9.31081H57.2847V5.06746H69.1265V0.662449H51.6915V22.6875ZM37.6358 15.0764L32.6106 0.662449H26.7407L35.0431 22.6875H40.1847L48.6473 0.662449H42.69L37.6358 15.0764ZM24.4539 18.2151V22.6875H7.23744V13.9448H0.857727V9.48593H7.23744V0.662449H24.2209V5.06746H12.9326V9.48593H19.3123V13.9448H12.9326V18.2151H24.4539ZM101.229 37.8558V34.8114H97.908V37.8558H96.1019V30.2716H97.908V33.2757H101.229V30.2716H103.035V37.8558H101.229ZM104.885 37.8558V30.2716H111.061V31.7535H106.662V33.2891H110.522V34.771H106.662V36.3605H111.119V37.8423H104.885V37.8558ZM118.751 37.8558L118.009 36.1585H114.542L113.799 37.8558H111.964L115.474 30.2178H117.135L120.645 37.8558H118.766H118.751ZM116.261 32.2249L115.168 34.6901H117.353L116.261 32.2249ZM121.635 37.8558V30.2716H123.441V36.3471H127.534V37.8558H121.635ZM131.336 31.8073V37.8558H129.53V31.8073H127.039V30.2716H133.841V31.8073H131.351H131.336ZM140.032 37.8558V34.8114H136.711V37.8558H134.905V30.2716H136.711V33.2757H140.032V30.2716H141.838V37.8558H140.032ZM149.791 37.9636C148.567 37.9636 147.314 37.5864 146.309 36.7512L147.373 35.5657C148.684 36.5491 149.63 36.4818 149.82 36.4818C150.927 36.4818 150.999 35.9564 150.999 35.7543C150.999 35.5119 151.101 35.1885 149.339 34.7844C148.931 34.6901 148.552 34.5824 148.217 34.4746C147.038 34.0705 146.615 33.4104 146.615 32.4539C146.615 30.2043 149.237 30.1504 149.47 30.1504C149.936 30.1504 151.233 30.1773 152.514 31.1203L151.582 32.3731C150.81 31.8882 150.126 31.6322 149.456 31.6322C148.494 31.6322 148.407 32.1306 148.407 32.3058C148.407 32.5078 148.363 32.8177 149.31 33.0871C150.111 33.3161 150.606 33.3834 151.291 33.6529C152.412 34.0839 152.791 34.7305 152.791 35.5927C152.791 36.6704 152.063 37.9501 149.791 37.9501V37.9636ZM154.204 37.8558V30.2716H160.38V31.7535H155.981V33.2891H159.841V34.771H155.981V36.3605H160.438V37.8423H154.204V37.8558ZM166.963 37.8558L165.201 35.431H163.788V37.8558H161.982V30.2716H165.725C167.692 30.2716 168.813 31.2011 168.813 32.7772V32.8042C168.813 33.0332 168.871 34.5285 167.051 35.1616L169.061 37.8693H166.949L166.963 37.8558ZM166.992 32.8581C166.992 31.8747 166.031 31.7804 165.58 31.7804H163.788V33.9627H165.609C166.978 33.9627 166.992 33.0332 166.992 32.885V32.8581ZM174.202 37.9097H172.615L169.294 30.2716H171.289L173.43 35.6062L175.572 30.2716H177.523L174.202 37.9097ZM178.558 37.8558V30.2716H180.364V37.8558H178.558ZM186.059 37.9905C182.621 37.9905 181.849 35.2559 181.849 34.0839C181.849 32.912 182.665 30.1504 186.132 30.1504C187.224 30.1504 188.346 30.3794 189.365 31.3224L188.215 32.5482C187.384 31.8612 186.758 31.6996 186.117 31.6996C183.903 31.6996 183.743 33.828 183.743 34.0705C183.743 34.3129 183.918 36.4683 186.117 36.4683C186.496 36.4683 187.209 36.4952 188.273 35.5792L189.423 36.6569C188.506 37.5594 187.574 38.0175 186.059 38.0175V37.9905ZM190.574 37.8558V30.2716H196.75V31.7535H192.351V33.2891H196.211V34.771H192.351V36.3605H196.808V37.8423H190.574V37.8558ZM201.207 37.9636C199.983 37.9636 198.731 37.5864 197.726 36.7512L198.789 35.5657C200.1 36.5491 201.047 36.4818 201.236 36.4818C202.343 36.4818 202.416 35.9564 202.416 35.7543C202.416 35.5119 202.518 35.1885 200.755 34.7844C200.348 34.6901 199.969 34.5824 199.634 34.4746C198.454 34.0705 198.032 33.4104 198.032 32.4539C198.032 30.2043 200.653 30.1504 200.887 30.1504C201.353 30.1504 202.649 30.1773 203.931 31.1203L202.999 32.3731C202.227 31.8882 201.542 31.6322 200.872 31.6322C199.911 31.6322 199.823 32.1306 199.823 32.3058C199.823 32.5078 199.78 32.8177 200.726 33.0871C201.527 33.3161 202.023 33.3834 202.707 33.6529C203.829 34.0839 204.207 34.7305 204.207 35.5927C204.207 36.6704 203.479 37.9501 201.207 37.9501V37.9636Z" fill="#3EFFC0"/>
</svg>
